<?xml version="1.0" encoding="utf-8"?>
<!-- Generator: Adobe Illustrator 16.0.0, SVG Export Plug-In . SVG Version: 6.00 Build 0)  -->
<!DOCTYPE svg PUBLIC "-//W3C//DTD SVG 1.1//EN" "http://www.w3.org/Graphics/SVG/1.1/DTD/svg11.dtd">
<svg version="1.1" id="Layer_1" xmlns="http://www.w3.org/2000/svg" xmlns:xlink="http://www.w3.org/1999/xlink" x="0px" y="0px"
	 width="126.809px" height="124.026px" viewBox="0 0 126.809 124.026" enable-background="new 0 0 126.809 124.026"
	 xml:space="preserve">
<path fill="#4B535A" d="M14.238,71.743v14.121L3.321,71.743H0v20.423h3.56v-14.53l11.237,14.53h3.001V71.743H14.238z M23.049,71.743
	v20.423h15.26v-3.239h-11.7v-5.456H36.85v-3.238H26.609v-5.251h11.554v-3.238H23.049z M54.794,71.685l-5.018,15.2l-4.873-15.142
	h-3.881l7.119,20.568h3.093l5.018-14.676l5.018,14.676h3.093l7.119-20.568h-3.764l-4.873,15.142l-5.018-15.2H54.794z"/>
<path fill="#4B535A" d="M16.251,103.457l-6.127,15.697l-6.156-15.697H0l8.49,20.569h3.151l8.49-20.569H16.251z M23.837,123.88h3.559
	v-20.424h-3.559V123.88z M32.881,103.457v20.423h15.26v-3.237h-11.7v-5.457h10.241v-3.238H36.441v-5.251h11.554v-3.239H32.881z
	 M64.625,103.399l-5.018,15.2l-4.872-15.143h-3.881l7.119,20.569h3.093l5.018-14.675l5.019,14.675h3.094l7.118-20.569h-3.764
	L72.678,118.6l-5.018-15.2H64.625z"/>
<path fill="#4B535A" d="M109.012,115.302v5.165H83.146l-1.168,3.56h30.592v-8.725H109.012z M0,11.456v54.401h3.559V15.017h7.947
	v-3.561H0z M20.529,11.456v3.561h88.483v91.263h3.559V11.456H20.529z"/>
<polygon fill="#23ABDE" points="14.238,0 14.238,65.857 17.797,65.857 17.797,3.561 123.249,3.561 123.249,109.011 86.909,109.011 
	85.74,112.57 126.809,112.57 126.809,0 "/>
</svg>
